<svg id="line_icons" fill="#3498db" height="512" viewBox="0 0 74 74" width="512" xmlns="http://www.w3.org/2000/svg" data-name="line icons"><path d="m35.258 67.437a28.75 28.75 0 1 1 28.75-28.75 28.782 28.782 0 0 1 -28.75 28.75zm0-55.5a26.75 26.75 0 1 0 26.75 26.75 26.78 26.78 0 0 0 -26.75-26.75z"/><path d="m35.258 61.624a22.938 22.938 0 1 1 22.942-22.937 22.964 22.964 0 0 1 -22.942 22.937zm0-43.875a20.938 20.938 0 1 0 20.942 20.938 20.962 20.962 0 0 0 -20.942-20.938z"/><path d="m35.258 42.312a3.625 3.625 0 1 1 3.625-3.625 3.629 3.629 0 0 1 -3.625 3.625zm0-5.25a1.625 1.625 0 1 0 1.625 1.625 1.627 1.627 0 0 0 -1.625-1.625z"/><path d="m35.258 23.541a1 1 0 0 1 -1-1v-1.724a1 1 0 0 1 2 0v1.724a1 1 0 0 1 -1 1z"/><path d="m19.112 39.687h-1.724a1 1 0 0 1 0-2h1.724a1 1 0 0 1 0 2z"/><path d="m35.258 57.556a1 1 0 0 1 -1-1v-1.724a1 1 0 0 1 2 0v1.724a1 1 0 0 1 -1 1z"/><path d="m53.127 39.687h-1.727a1 1 0 0 1 0-2h1.724a1 1 0 0 1 0 2z"/><path d="m45.409 44.307a1 1 0 0 1 -.409-.091l-7.77-3.539a1 1 0 0 1 .829-1.821l7.77 3.54a1 1 0 0 1 -.415 1.911z"/><path d="m34.021 37.376a1 1 0 0 1 -.883-.527l-6.5-12.12a1 1 0 0 1 1.763-.945l6.499 12.116a1 1 0 0 1 -.88 1.472z"/><path d="m17.465 18.228a1 1 0 0 1 -.837-.451l-2.364-3.59a1 1 0 0 1 .286-1.387l3.755-2.468a1 1 0 0 1 1.385.288l2.267 3.452a1 1 0 0 1 -1.672 1.1l-1.718-2.616-2.082 1.368 1.815 2.754a1 1 0 0 1 -.834 1.55z"/><path d="m9.422 18.366a1 1 0 0 1 -.837-.451 10.762 10.762 0 0 1 -1.644-7.824 9.74 9.74 0 0 1 4.244-6.508 10.318 10.318 0 0 1 14.185 3.306 1 1 0 0 1 -.287 1.385l-15.113 9.926a1 1 0 0 1 -.548.166zm7.078-14.366a7.644 7.644 0 0 0 -4.22 1.252 7.756 7.756 0 0 0 -3.37 5.191 8.7 8.7 0 0 0 .843 5.508l13.347-8.77a8.629 8.629 0 0 0 -6.6-3.181z"/><path d="m53.051 18.228a1 1 0 0 1 -.835-1.55l1.814-2.755-2.082-1.368-1.718 2.616a1 1 0 1 1 -1.671-1.1l2.266-3.452a1 1 0 0 1 1.385-.288l3.755 2.469a1 1 0 0 1 .286 1.386l-2.364 3.59a1 1 0 0 1 -.836.452z"/><path d="m61.093 18.366a1 1 0 0 1 -.548-.164l-15.112-9.928a1 1 0 0 1 -.287-1.385 10.758 10.758 0 0 1 6.527-4.615 9.7 9.7 0 0 1 11.9 7.817 10.762 10.762 0 0 1 -1.644 7.824 1 1 0 0 1 -.836.451zm-13.682-11.185 13.351 8.77a8.7 8.7 0 0 0 .843-5.508 7.705 7.705 0 0 0 -9.473-6.223 8.71 8.71 0 0 0 -4.721 2.961z"/><path d="m18.027 72a3.928 3.928 0 0 1 -3.392-5.906l3.237-5.614a1 1 0 1 1 1.732 1l-3.24 5.62a1.905 1.905 0 0 0 -.2 1.46 1.932 1.932 0 0 0 3.546.472l3.222-5.572a1 1 0 0 1 1.731 1l-3.22 5.57a3.934 3.934 0 0 1 -3.416 1.97z"/><path d="m52.488 72a3.934 3.934 0 0 1 -3.418-1.973l-3.218-5.567a1 1 0 0 1 1.731-1l3.22 5.57a1.933 1.933 0 0 0 3.548-.47 1.9 1.9 0 0 0 -.2-1.454l-3.243-5.626a1 1 0 1 1 1.732-1l3.24 5.62a3.931 3.931 0 0 1 -1.435 5.375 3.924 3.924 0 0 1 -1.957.525z"/></svg>